<?xml version="1.0" encoding="utf-8" ?>
<svg baseProfile="full" height="589" version="1.1" width="1080" xmlns="http://www.w3.org/2000/svg" xmlns:ev="http://www.w3.org/2001/xml-events" xmlns:xlink="http://www.w3.org/1999/xlink"><defs /><polygon fill="black" points="759,464 758,465 757,465 756,466 756,468 757,469 756,470 757,471 757,475 756,476 756,557 757,558 757,563 759,565 762,565 763,564 765,564 766,565 790,565 790,564 792,562 792,561 791,560 791,532 792,531 793,532 809,532 810,531 816,531 817,530 819,530 820,529 823,529 824,528 827,528 828,527 829,527 830,526 831,526 833,524 834,524 837,521 838,521 841,518 841,517 843,515 843,514 844,513 844,511 845,510 845,508 846,507 846,502 847,501 847,498 846,497 846,488 845,487 845,486 844,485 844,483 843,482 843,481 838,476 838,475 836,473 835,473 834,472 833,472 831,470 830,470 829,469 828,469 827,468 825,468 824,467 822,467 821,466 818,466 817,465 812,465 811,464" /><polygon fill="black" points="578,463 577,464 576,464 574,466 574,545 573,546 574,547 574,563 576,565 587,565 588,564 589,565 644,565 645,564 646,564 646,563 647,562 647,560 646,559 646,546 647,545 647,544 645,542 610,542 609,541 609,525 610,524 639,524 640,523 641,523 642,522 642,519 641,518 641,516 642,515 642,513 641,512 641,509 642,508 642,505 641,504 641,503 640,502 634,502 633,503 620,503 619,502 618,502 617,503 610,503 609,502 609,487 610,486 643,486 644,485 646,485 646,468 647,467 647,466 645,464 579,464" /><polygon fill="black" points="367,462 366,463 362,463 361,464 357,464 356,465 355,465 354,466 353,466 352,467 350,467 349,468 348,468 346,470 345,470 344,471 343,471 338,476 337,476 334,479 334,480 331,483 331,484 329,486 329,487 326,490 326,492 325,493 325,495 324,496 324,498 323,499 323,501 322,502 322,509 321,510 321,521 322,522 322,527 323,528 323,531 324,532 324,533 325,534 325,537 326,538 326,539 327,540 327,541 330,544 330,545 333,548 333,549 338,554 339,554 343,558 344,558 345,559 346,559 347,560 348,560 349,561 350,561 351,562 352,562 353,563 354,563 355,564 358,564 359,565 361,565 362,566 368,566 369,567 385,567 386,566 392,566 393,565 396,565 397,564 399,564 400,563 402,563 403,562 405,562 407,564 407,565 433,565 434,564 434,561 435,560 435,557 436,556 436,552 437,551 437,547 438,546 438,545 440,543 443,543 444,544 458,544 459,545 459,547 460,548 460,551 461,552 461,556 462,557 462,560 463,561 463,563 465,565 502,565 504,563 506,565 570,565 570,564 572,562 571,561 571,545 572,544 572,543 571,542 572,541 572,540 571,540 570,541 569,541 568,542 540,542 539,541 539,477 538,476 538,472 539,471 539,466 537,464 508,464 507,463 506,463 505,464 504,464 504,465 503,466 503,471 504,472 504,483 503,484 503,491 504,492 504,540 503,541 503,542 504,543 504,546 501,549 499,547 499,544 498,543 498,539 497,538 497,537 496,536 496,533 495,532 495,529 494,528 494,526 493,525 493,521 492,520 492,518 491,517 491,514 490,513 490,511 489,510 489,508 488,507 488,503 487,502 487,500 486,499 486,495 485,494 485,493 484,492 484,489 483,488 483,486 482,485 482,481 481,480 481,478 480,477 480,474 479,473 479,470 478,469 478,466 476,464 435,464 434,463 433,463 432,464 431,464 429,466 429,471 428,472 428,476 427,477 427,480 426,481 426,484 425,485 425,488 424,489 424,492 423,493 423,496 422,497 422,499 421,500 421,504 420,505 420,508 419,509 419,512 418,513 418,515 417,516 417,519 416,520 416,524 415,525 415,527 414,528 414,531 413,532 413,535 410,538 409,537 407,537 406,538 405,537 405,535 404,534 402,534 401,535 400,535 399,536 398,536 397,537 396,537 395,538 394,538 393,539 390,539 389,540 387,540 386,541 384,541 383,542 379,542 378,541 373,541 372,540 370,540 369,539 368,539 365,536 364,536 362,534 362,533 360,531 360,530 359,529 359,528 358,527 358,525 357,524 357,521 356,520 356,517 357,516 357,515 356,514 356,508 357,507 357,506 358,505 358,501 360,499 360,498 362,496 362,495 363,494 364,494 367,491 368,491 369,490 370,490 371,489 372,489 373,488 386,488 387,489 389,489 390,490 392,490 393,491 394,490 396,492 397,492 399,494 403,494 404,493 404,491 405,490 405,484 406,483 406,480 407,479 407,475 408,474 408,473 409,472 408,471 408,470 407,469 407,468 406,468 405,467 403,467 402,466 401,466 400,465 398,465 397,464 393,464 392,463 388,463 387,462" /><polygon fill="black" points="266,462 265,463 261,463 260,464 258,464 257,465 255,465 254,466 253,466 252,467 251,467 249,469 248,469 246,471 245,471 244,472 244,473 242,475 242,476 240,478 240,480 239,481 239,483 238,484 238,487 237,488 237,498 238,499 238,503 239,504 239,506 240,507 240,508 242,510 242,511 243,512 243,513 244,513 245,514 245,515 247,515 248,516 248,517 250,519 251,519 252,520 253,520 254,521 255,521 257,523 260,523 261,524 263,524 264,525 266,525 267,526 268,526 269,527 272,527 273,528 275,528 276,529 278,529 279,530 280,530 282,532 283,532 284,533 284,539 283,540 282,540 281,541 280,541 279,542 277,542 276,543 270,543 269,542 264,542 263,541 259,541 258,540 255,540 254,539 253,539 252,538 251,538 250,537 248,537 247,536 246,536 245,535 244,535 243,534 242,534 241,535 240,534 238,536 238,541 239,542 239,544 238,545 238,546 239,547 239,559 240,560 240,561 243,561 244,562 245,562 246,563 249,563 250,564 253,564 254,565 257,565 258,566 266,566 267,567 280,567 281,568 282,567 285,567 286,566 292,566 293,565 294,565 295,564 298,564 299,563 301,563 302,562 303,562 305,560 306,560 314,552 314,551 315,550 315,547 316,546 316,545 317,544 317,538 318,537 318,531 317,530 317,524 316,523 316,522 315,521 315,518 312,515 312,514 309,511 308,511 304,507 303,507 302,506 301,506 300,505 299,505 298,504 296,504 295,503 292,503 290,501 287,501 286,500 285,500 284,499 281,499 280,498 278,498 277,497 275,497 273,495 272,495 271,494 271,491 269,489 271,487 272,487 273,486 289,486 290,487 294,487 295,488 297,488 298,489 301,489 302,490 303,490 304,491 306,491 308,493 309,493 310,492 312,492 313,491 313,468 312,468 310,466 307,466 306,465 302,465 301,464 298,464 297,463 291,463 290,462" /><polygon fill="black" points="729,406 727,408 727,409 726,410 725,410 724,411 724,412 719,417 719,418 715,422 715,423 705,433 705,434 702,437 702,441 703,442 707,442 708,441 712,441 713,442 715,442 716,443 716,529 715,530 715,534 714,535 714,536 713,537 713,538 712,539 712,540 710,542 709,542 707,544 701,544 700,543 699,543 694,538 694,537 693,536 693,533 692,532 692,528 691,527 691,465 690,464 658,464 656,466 656,469 657,470 657,530 658,531 658,532 659,533 659,537 660,538 660,540 661,541 661,543 663,545 663,547 665,549 665,550 666,551 666,552 670,556 671,556 672,557 672,558 673,559 674,559 675,560 676,560 677,561 678,561 679,562 680,562 681,563 682,563 683,564 684,564 685,565 688,565 689,566 694,566 695,567 710,567 711,566 716,566 717,565 720,565 721,564 723,564 724,563 725,563 726,562 727,562 729,560 730,560 737,553 737,552 738,551 738,550 739,549 739,548 740,547 740,546 741,545 741,544 742,543 742,540 743,539 743,537 744,536 744,529 745,528 745,473 746,472 746,443 747,442 751,442 752,441 753,442 759,442 760,441 761,441 761,437 760,436 759,436 758,435 758,434 747,423 747,422 742,417 742,416 738,412 738,411 737,410 736,410 735,409 735,408 733,406" /><polygon fill="black" points="657,385 656,386 654,386 653,387 651,387 649,389 648,389 647,390 646,390 643,393 642,392 642,390 643,389 643,388 641,386 619,386 618,387 618,443 620,445 640,445 641,444 642,444 643,443 643,409 644,408 644,407 647,404 648,404 649,403 650,403 651,402 656,402 657,403 658,403 660,405 660,406 661,407 661,443 662,444 663,444 664,445 684,445 685,444 686,444 686,443 687,442 687,441 686,440 686,400 685,399 685,397 684,396 684,395 683,394 683,393 682,392 682,391 680,389 679,389 677,387 675,387 674,386 673,386 672,385" /><polygon fill="black" points="561,385 560,386 554,386 553,387 549,387 547,389 547,391 548,392 548,400 547,401 547,402 548,403 548,404 549,405 551,405 552,404 556,404 557,403 561,403 562,402 573,402 574,403 576,403 580,407 580,408 579,409 577,409 576,408 576,406 575,406 575,408 574,409 567,409 566,410 561,410 560,411 558,411 557,412 555,412 553,414 552,414 551,415 550,415 549,416 549,417 548,418 548,419 545,422 545,427 544,428 544,431 545,432 545,436 546,437 546,438 548,440 548,441 549,442 550,442 552,444 553,444 554,445 556,445 557,446 569,446 570,445 572,445 573,444 575,444 577,442 578,442 579,441 580,441 581,440 582,441 582,444 583,444 584,445 604,445 606,443 606,406 605,405 605,401 604,400 604,399 603,398 603,397 602,396 602,395 597,390 596,390 595,389 594,389 593,388 592,388 591,387 589,387 588,386 585,386 584,385" /><polygon fill="black" points="467,385 466,386 464,386 463,387 462,387 461,388 460,388 459,389 458,389 456,391 455,390 455,387 454,386 431,386 429,388 429,391 430,392 430,440 429,441 429,442 432,445 453,445 454,444 455,444 455,407 459,403 461,403 462,402 466,402 469,405 469,406 470,407 470,416 471,417 471,439 470,440 470,442 471,443 471,444 472,444 473,445 493,445 494,444 495,444 496,443 496,439 495,438 495,437 496,436 496,408 497,407 497,406 500,403 501,403 502,402 504,402 505,403 506,403 508,405 508,406 509,407 509,409 510,410 510,441 509,442 511,444 512,444 513,445 533,445 534,444 535,444 535,400 534,399 534,397 532,395 532,393 526,387 525,387 524,386 522,386 521,385 506,385 505,386 503,386 502,387 500,387 499,388 498,388 497,389 496,389 494,391 493,391 490,394 489,393 489,392 485,388 484,388 483,387 482,387 481,386 480,386 479,385" /><polygon fill="black" points="385,385 384,386 381,386 380,387 379,387 378,388 377,388 376,389 375,389 374,390 373,390 372,391 371,391 368,394 367,394 366,395 366,396 363,399 363,400 362,401 362,402 361,403 361,404 360,405 360,407 359,408 359,420 360,421 360,425 361,426 361,427 362,428 362,429 363,430 363,431 364,432 364,433 365,434 365,435 370,440 371,440 373,442 374,442 375,443 377,443 378,444 380,444 381,445 384,445 385,446 404,446 405,445 409,445 410,444 412,444 413,443 416,443 417,442 417,441 418,440 418,427 416,425 415,425 414,424 412,426 411,426 410,427 407,427 406,428 402,428 401,429 394,429 393,428 391,428 390,427 389,427 386,424 386,423 385,422 386,421 397,421 398,420 401,420 402,419 406,419 407,418 409,418 410,417 411,417 413,415 414,415 417,412 417,411 418,410 418,409 419,408 419,398 418,397 418,396 416,394 416,392 415,392 411,388 409,388 408,387 407,387 406,386 403,386 402,385" /><polygon fill="black" points="298,369 298,388 299,389 313,389 314,390 314,443 316,445 338,445 339,444 340,444 340,390 341,389 356,389 358,387 358,372 357,371 357,369" /><polygon fill="black" points="576,130 574,132 573,132 570,135 569,135 566,138 565,138 563,140 562,140 560,142 559,142 557,144 556,144 555,145 554,145 552,147 551,147 549,149 548,149 547,150 546,150 545,151 544,151 542,153 541,153 540,154 539,154 538,155 537,155 536,156 534,156 532,158 531,158 530,159 528,159 527,160 526,160 525,161 524,161 523,162 521,162 520,163 519,163 518,164 516,164 515,165 514,165 513,166 511,166 510,167 508,167 507,168 504,168 503,169 501,169 500,170 497,170 496,171 494,171 493,172 489,172 488,173 485,173 484,174 480,174 479,175 475,175 474,176 466,176 465,177 457,177 456,178 433,178 432,177 423,177 422,176 414,176 413,175 408,175 407,174 403,174 402,173 399,173 398,172 395,172 394,171 391,171 390,170 388,170 387,169 385,169 384,168 383,168 382,167 381,167 380,168 379,168 379,169 378,170 378,181 379,182 379,183 378,184 379,185 379,196 380,197 380,201 381,202 381,206 382,207 382,210 383,211 383,214 384,215 384,217 385,218 385,220 386,221 386,223 387,224 387,226 388,227 388,228 389,229 389,231 390,232 390,233 391,234 391,236 394,239 395,239 396,240 398,240 399,241 403,241 404,242 410,242 411,243 417,243 418,244 421,244 422,245 424,245 425,244 426,244 426,240 425,239 425,238 424,237 424,236 423,235 423,234 421,232 421,230 420,229 420,228 419,227 419,226 418,225 418,223 417,222 417,220 416,219 416,218 415,217 415,215 414,214 414,211 415,210 427,210 428,209 439,209 440,208 447,208 448,207 453,207 454,206 459,206 460,205 463,205 464,204 467,204 468,203 472,203 473,202 475,202 476,201 479,201 480,200 482,200 483,199 485,199 486,198 488,198 489,197 490,197 491,196 493,196 494,195 496,195 497,194 499,194 500,193 501,193 503,191 505,191 506,190 507,190 509,188 511,188 513,186 514,186 515,185 516,185 517,184 518,184 519,183 520,183 521,182 522,182 524,180 525,180 526,179 527,179 529,177 530,177 531,176 532,176 534,174 535,174 537,172 538,172 540,170 541,170 542,169 543,169 548,164 549,164 552,161 553,161 566,148 567,148 567,147 572,142 572,141 576,137 576,136 578,134 578,133 579,132 579,130" /><polygon fill="black" points="540,83 539,84 538,84 537,85 536,85 535,86 534,86 532,88 530,88 529,89 528,89 527,90 525,90 523,92 521,92 520,93 518,93 517,94 515,94 514,95 512,95 511,96 509,96 508,97 505,97 504,98 502,98 501,99 498,99 497,100 493,100 492,101 489,101 488,102 482,102 481,103 473,103 472,104 441,104 440,103 434,103 433,102 428,102 427,101 423,101 422,100 418,100 417,99 415,99 414,98 412,98 411,97 406,97 405,98 405,99 403,101 403,102 400,105 400,106 398,108 398,109 396,111 396,112 395,113 395,115 393,117 393,118 391,120 391,122 390,123 390,124 389,125 389,127 388,128 388,129 387,130 387,132 386,133 386,135 385,136 385,138 384,139 384,141 383,142 383,144 382,145 382,150 381,151 381,154 380,155 380,160 381,161 382,161 383,162 385,162 386,163 389,163 390,164 393,164 394,165 397,165 398,166 400,166 401,167 404,167 405,168 408,168 410,166 410,163 411,162 411,155 412,154 412,151 413,150 413,147 414,146 414,143 415,142 415,140 416,139 416,137 417,136 417,134 418,133 418,131 420,129 420,127 421,126 452,126 453,125 461,125 462,124 467,124 468,123 471,123 472,122 475,122 476,121 480,121 481,120 483,120 484,119 486,119 487,118 489,118 490,117 492,117 493,116 495,116 496,115 497,115 498,114 500,114 501,113 502,113 503,112 505,112 506,111 507,111 508,110 509,110 510,109 511,109 513,107 514,107 515,106 516,106 517,105 518,105 519,104 520,104 521,103 522,103 524,101 525,101 527,99 528,99 530,97 531,97 534,94 535,94 538,91 539,91 545,85 545,84 544,83" /><polygon fill="black" points="655,81 655,82 656,83 656,85 659,88 660,88 662,90 663,90 675,102 675,104 677,106 677,107 678,108 678,109 679,110 679,112 680,113 680,114 681,115 681,118 682,119 682,123 683,124 683,136 682,137 682,143 681,144 681,147 680,148 680,151 679,152 679,155 678,156 678,157 677,158 677,160 676,161 676,162 675,163 675,165 673,167 673,168 672,169 672,170 671,171 671,173 670,174 670,175 668,177 668,178 666,180 666,181 665,182 665,183 663,185 663,186 661,188 661,189 658,192 658,193 655,196 655,197 650,202 650,203 647,206 647,207 645,209 644,209 643,210 643,211 640,214 639,214 639,215 636,218 635,218 627,226 626,226 626,227 624,229 623,229 616,236 615,236 608,243 607,243 604,246 603,246 600,249 599,249 597,251 596,251 594,253 593,253 589,257 588,257 587,258 586,258 585,259 584,259 581,262 580,262 578,264 577,264 576,265 575,265 573,267 572,267 571,268 570,268 569,269 568,269 567,270 566,270 564,272 563,272 562,273 561,273 559,275 558,275 557,276 556,276 555,277 554,277 553,278 552,278 551,279 550,279 548,281 547,281 546,282 545,282 544,283 543,283 542,284 541,284 540,285 538,285 537,286 536,286 535,287 534,287 533,288 532,288 531,289 530,289 529,290 528,290 527,291 526,291 525,292 524,292 523,293 521,293 520,294 519,294 518,295 517,295 516,296 514,296 513,297 512,297 511,298 510,298 509,299 507,299 506,300 504,300 502,302 499,302 498,303 497,303 496,304 495,304 494,303 494,302 495,301 494,300 494,299 493,298 492,298 491,297 490,297 489,296 487,296 486,295 485,295 484,294 483,294 482,293 481,293 480,292 478,292 476,290 475,290 474,289 473,289 471,287 470,287 468,285 467,285 466,284 465,284 461,280 460,280 459,279 458,279 457,278 458,277 461,277 462,276 466,276 467,275 470,275 471,274 474,274 475,273 477,273 478,272 481,272 482,271 484,271 485,270 487,270 488,269 490,269 491,268 492,268 493,267 495,267 496,266 497,266 498,265 500,265 501,264 502,264 503,263 504,263 505,262 507,262 508,261 509,261 510,260 511,260 512,259 513,259 514,258 515,258 516,257 517,257 519,255 520,255 521,254 522,254 523,253 524,253 526,251 527,251 529,249 530,249 532,247 533,247 535,245 536,245 538,243 539,243 541,241 542,241 547,236 548,236 549,235 550,235 557,228 558,228 570,216 570,215 576,209 576,208 578,206 578,202 575,202 573,204 572,204 568,208 567,208 564,211 563,211 562,212 561,212 558,215 557,215 555,217 554,217 553,218 552,218 550,220 549,220 548,221 547,221 545,223 544,223 543,224 542,224 541,225 540,225 539,226 538,226 537,227 536,227 535,228 534,228 533,229 532,229 531,230 529,230 528,231 527,231 526,232 525,232 524,233 523,233 522,234 520,234 519,235 518,235 517,236 515,236 514,237 512,237 511,238 510,238 509,239 506,239 505,240 503,240 502,241 500,241 499,242 497,242 496,243 495,243 494,244 490,244 489,245 486,245 485,246 481,246 480,247 476,247 475,248 469,248 468,249 460,249 459,250 428,250 427,249 419,249 418,248 412,248 411,247 406,247 405,246 403,246 402,245 400,245 399,246 399,249 401,251 401,252 403,254 403,255 406,258 406,259 410,263 410,264 425,279 426,279 430,283 431,283 433,285 434,285 437,288 438,288 440,290 441,290 442,291 443,291 444,292 445,292 447,294 448,294 449,295 450,295 451,296 452,296 453,297 454,297 455,298 457,298 458,299 460,299 461,300 462,300 463,301 466,301 467,302 468,302 469,303 471,303 472,304 475,304 476,305 478,305 479,306 482,306 483,305 486,305 487,304 490,304 491,305 490,306 489,306 488,307 487,307 486,308 484,308 483,309 481,309 480,310 477,310 476,311 475,311 474,312 470,312 469,313 468,313 467,314 464,314 463,315 460,315 459,316 456,316 455,317 452,317 451,318 447,318 446,319 442,319 441,320 437,320 436,321 430,321 429,322 424,322 423,323 416,323 415,324 407,324 406,325 367,325 366,324 362,324 361,323 356,323 355,322 350,322 349,321 348,321 346,323 346,326 347,326 348,327 349,327 350,328 353,328 355,330 356,330 357,331 361,331 362,332 363,332 364,333 366,333 367,334 371,334 372,335 374,335 375,336 380,336 381,337 386,337 387,338 394,338 395,339 430,339 431,338 440,338 441,337 447,337 448,336 455,336 456,335 459,335 460,334 466,334 467,333 472,333 473,332 476,332 477,331 480,331 481,330 483,330 484,329 487,329 488,328 491,328 492,327 495,327 496,326 498,326 499,325 502,325 503,324 505,324 506,323 508,323 509,322 511,322 512,321 514,321 515,320 517,320 518,319 520,319 521,318 522,318 523,317 526,317 527,316 528,316 529,315 530,315 531,314 532,314 533,313 535,313 537,311 539,311 540,310 542,310 543,309 544,309 545,308 546,308 547,307 548,307 549,306 551,306 552,305 553,305 554,304 555,304 556,303 557,303 558,302 560,302 562,300 563,300 564,299 566,299 567,298 568,298 570,296 572,296 574,294 576,294 578,292 579,292 580,291 582,291 585,288 586,288 587,287 589,287 590,286 591,286 593,284 594,284 596,282 597,282 599,280 600,280 601,279 602,279 604,277 605,277 606,276 608,276 611,273 612,273 614,271 615,271 618,268 619,268 622,265 623,265 624,264 625,264 629,260 630,260 631,259 632,259 638,253 639,253 646,246 647,246 651,242 652,242 658,236 659,236 659,235 660,234 661,234 661,233 663,231 664,231 665,230 665,229 666,228 667,228 669,226 669,225 678,216 678,215 683,210 683,209 685,207 685,206 688,203 688,202 689,201 689,200 692,197 692,196 694,194 694,193 695,192 695,191 697,189 697,188 698,187 698,186 699,185 699,184 700,183 700,182 701,181 701,180 702,179 702,178 703,177 703,176 705,174 705,172 706,171 706,169 707,168 707,166 708,165 708,164 709,163 709,161 710,160 710,155 711,154 711,152 712,151 712,131 711,130 711,126 710,125 710,122 709,121 709,120 707,118 707,116 706,115 706,114 705,113 705,112 703,110 703,109 701,107 701,106 691,96 690,96 688,94 687,94 684,91 683,91 682,90 681,90 680,89 679,89 678,88 676,88 674,86 672,86 671,85 670,85 669,84 666,84 665,83 664,83 663,82 661,82 660,81" /><polygon fill="black" points="495,47 494,48 486,48 485,49 481,49 480,50 477,50 476,51 474,51 473,52 470,52 469,53 467,53 466,54 464,54 463,55 462,55 461,56 459,56 458,57 456,57 455,58 454,58 452,60 451,60 450,61 448,61 446,63 445,63 442,66 441,66 440,67 439,67 438,68 437,68 435,70 434,70 431,73 430,73 426,77 425,77 412,90 412,94 413,94 414,95 418,95 419,96 424,96 425,97 428,97 429,98 433,98 434,99 436,99 437,98 438,98 439,97 439,96 456,79 457,79 457,78 458,77 459,77 463,73 464,73 467,70 468,70 470,68 472,68 474,66 475,66 476,65 477,65 478,64 479,64 480,63 481,63 482,62 483,62 484,61 485,61 486,60 487,60 488,59 490,59 491,58 493,58 494,57 495,57 496,56 499,56 500,55 502,55 503,54 505,54 506,53 511,53 512,52 518,52 519,51 521,51 522,50 523,50 523,48 522,47" /></svg>